<mxfile host="app.diagrams.net" agent="Mozilla/5.0 (Windows NT 10.0; Win64; x64) AppleWebKit/537.36 (KHTML, like Gecko) Chrome/127.0.0.0 Safari/537.36 OPR/113.0.0.0 (Edition Yx GX)" version="24.7.16">
  <diagram name="Страница — 1" id="5o0nA7FV0MhEvLhmFP9w">
    <mxGraphModel dx="2143" dy="1225" grid="1" gridSize="10" guides="1" tooltips="1" connect="1" arrows="1" fold="1" page="1" pageScale="1" pageWidth="827" pageHeight="1169" math="0" shadow="0">
      <root>
        <mxCell id="0" />
        <mxCell id="1" parent="0" />
        <mxCell id="Wzd05YAp9pM7tJVJk9kT-8" style="edgeStyle=orthogonalEdgeStyle;rounded=0;orthogonalLoop=1;jettySize=auto;html=1;entryX=0;entryY=0.5;entryDx=0;entryDy=0;" parent="1" source="Wzd05YAp9pM7tJVJk9kT-3" target="Wzd05YAp9pM7tJVJk9kT-7" edge="1">
          <mxGeometry relative="1" as="geometry" />
        </mxCell>
        <mxCell id="Wzd05YAp9pM7tJVJk9kT-3" value="Ученик" style="shape=umlActor;verticalLabelPosition=bottom;verticalAlign=top;html=1;outlineConnect=0;" parent="1" vertex="1">
          <mxGeometry x="40" y="750" width="30" height="60" as="geometry" />
        </mxCell>
        <mxCell id="Wzd05YAp9pM7tJVJk9kT-12" value="" style="edgeStyle=orthogonalEdgeStyle;rounded=0;orthogonalLoop=1;jettySize=auto;html=1;entryX=0.5;entryY=1;entryDx=0;entryDy=0;" parent="1" source="Wzd05YAp9pM7tJVJk9kT-7" target="Wzd05YAp9pM7tJVJk9kT-11" edge="1">
          <mxGeometry relative="1" as="geometry">
            <mxPoint x="414" y="740" as="targetPoint" />
            <Array as="points">
              <mxPoint x="414" y="780" />
            </Array>
          </mxGeometry>
        </mxCell>
        <mxCell id="Wzd05YAp9pM7tJVJk9kT-7" value="Логин" style="rounded=0;whiteSpace=wrap;html=1;" parent="1" vertex="1">
          <mxGeometry x="160" y="750" width="120" height="60" as="geometry" />
        </mxCell>
        <mxCell id="Wzd05YAp9pM7tJVJk9kT-10" value="Регистрация" style="rounded=0;whiteSpace=wrap;html=1;" parent="1" vertex="1">
          <mxGeometry x="160" y="890" width="120" height="60" as="geometry" />
        </mxCell>
        <mxCell id="Wzd05YAp9pM7tJVJk9kT-36" style="edgeStyle=orthogonalEdgeStyle;rounded=0;orthogonalLoop=1;jettySize=auto;html=1;exitX=0.5;exitY=0;exitDx=0;exitDy=0;entryX=0.5;entryY=1;entryDx=0;entryDy=0;" parent="1" source="Wzd05YAp9pM7tJVJk9kT-11" edge="1">
          <mxGeometry relative="1" as="geometry">
            <mxPoint x="414" y="560" as="targetPoint" />
          </mxGeometry>
        </mxCell>
        <mxCell id="Wzd05YAp9pM7tJVJk9kT-11" value="&lt;div style=&quot;&quot;&gt;&lt;span style=&quot;background-color: initial;&quot;&gt;Главная.&lt;/span&gt;&lt;/div&gt;&lt;div style=&quot;&quot;&gt;&lt;span style=&quot;background-color: initial;&quot;&gt;все темы, которые написал учитель&amp;nbsp;&amp;nbsp;&lt;/span&gt;&lt;/div&gt;" style="rounded=0;whiteSpace=wrap;html=1;align=center;" parent="1" vertex="1">
          <mxGeometry x="216" y="660" width="396" height="60" as="geometry" />
        </mxCell>
        <mxCell id="Wzd05YAp9pM7tJVJk9kT-14" value="" style="endArrow=none;dashed=1;html=1;dashPattern=1 3;strokeWidth=2;rounded=0;entryX=0.5;entryY=1;entryDx=0;entryDy=0;exitX=0.5;exitY=0;exitDx=0;exitDy=0;" parent="1" source="Wzd05YAp9pM7tJVJk9kT-10" target="Wzd05YAp9pM7tJVJk9kT-7" edge="1">
          <mxGeometry width="50" height="50" relative="1" as="geometry">
            <mxPoint x="390" y="940" as="sourcePoint" />
            <mxPoint x="440" y="890" as="targetPoint" />
          </mxGeometry>
        </mxCell>
        <mxCell id="Wzd05YAp9pM7tJVJk9kT-41" style="edgeStyle=orthogonalEdgeStyle;rounded=0;orthogonalLoop=1;jettySize=auto;html=1;entryX=0.5;entryY=0;entryDx=0;entryDy=0;" parent="1" source="Wzd05YAp9pM7tJVJk9kT-15" target="zt1CgaJMKVYSrlYPlvOR-1" edge="1">
          <mxGeometry relative="1" as="geometry">
            <Array as="points">
              <mxPoint x="787" y="1040" />
              <mxPoint x="730" y="1040" />
            </Array>
            <mxPoint x="550" y="1130" as="targetPoint" />
          </mxGeometry>
        </mxCell>
        <mxCell id="Wzd05YAp9pM7tJVJk9kT-42" style="edgeStyle=orthogonalEdgeStyle;rounded=0;orthogonalLoop=1;jettySize=auto;html=1;entryX=0.5;entryY=0;entryDx=0;entryDy=0;" parent="1" source="Wzd05YAp9pM7tJVJk9kT-15" target="zt1CgaJMKVYSrlYPlvOR-2" edge="1">
          <mxGeometry relative="1" as="geometry">
            <Array as="points">
              <mxPoint x="787" y="1040" />
              <mxPoint x="878" y="1040" />
            </Array>
            <mxPoint x="920" y="1080" as="targetPoint" />
          </mxGeometry>
        </mxCell>
        <mxCell id="Wzd05YAp9pM7tJVJk9kT-43" style="edgeStyle=orthogonalEdgeStyle;rounded=0;orthogonalLoop=1;jettySize=auto;html=1;entryX=0.5;entryY=0;entryDx=0;entryDy=0;" parent="1" source="Wzd05YAp9pM7tJVJk9kT-15" target="zt1CgaJMKVYSrlYPlvOR-8" edge="1">
          <mxGeometry relative="1" as="geometry">
            <Array as="points">
              <mxPoint x="787" y="1040" />
              <mxPoint x="1028" y="1040" />
            </Array>
            <mxPoint x="844.0000000000005" y="1130" as="targetPoint" />
          </mxGeometry>
        </mxCell>
        <mxCell id="_16jkD-GpWcfrMRBFpo_-1" style="edgeStyle=orthogonalEdgeStyle;rounded=0;orthogonalLoop=1;jettySize=auto;html=1;entryX=0.5;entryY=1;entryDx=0;entryDy=0;" parent="1" source="Wzd05YAp9pM7tJVJk9kT-15" target="Wzd05YAp9pM7tJVJk9kT-53" edge="1">
          <mxGeometry relative="1" as="geometry">
            <Array as="points">
              <mxPoint x="787" y="1040" />
              <mxPoint x="580" y="1040" />
            </Array>
            <mxPoint x="360" y="1240" as="targetPoint" />
          </mxGeometry>
        </mxCell>
        <mxCell id="Wzd05YAp9pM7tJVJk9kT-15" value="Главная&amp;nbsp;&lt;div&gt;Добавление групп и предметов.&lt;br&gt;Выбор существующих групп&lt;/div&gt;" style="rounded=0;whiteSpace=wrap;html=1;" parent="1" vertex="1">
          <mxGeometry x="574" y="900" width="426" height="60" as="geometry" />
        </mxCell>
        <mxCell id="Wzd05YAp9pM7tJVJk9kT-48" value="Invalid password" style="rounded=0;whiteSpace=wrap;html=1;" parent="1" vertex="1">
          <mxGeometry x="10" y="890" width="120" height="60" as="geometry" />
        </mxCell>
        <mxCell id="Wzd05YAp9pM7tJVJk9kT-49" value="" style="endArrow=none;dashed=1;html=1;dashPattern=1 3;strokeWidth=2;rounded=0;entryX=0.5;entryY=1;entryDx=0;entryDy=0;exitX=0.5;exitY=0;exitDx=0;exitDy=0;" parent="1" source="Wzd05YAp9pM7tJVJk9kT-48" target="Wzd05YAp9pM7tJVJk9kT-7" edge="1">
          <mxGeometry width="50" height="50" relative="1" as="geometry">
            <mxPoint x="390" y="880" as="sourcePoint" />
            <mxPoint x="440" y="830" as="targetPoint" />
          </mxGeometry>
        </mxCell>
        <mxCell id="zt1CgaJMKVYSrlYPlvOR-12" value="" style="edgeStyle=orthogonalEdgeStyle;rounded=0;orthogonalLoop=1;jettySize=auto;html=1;" edge="1" parent="1" source="Wzd05YAp9pM7tJVJk9kT-53" target="zt1CgaJMKVYSrlYPlvOR-11">
          <mxGeometry relative="1" as="geometry" />
        </mxCell>
        <mxCell id="Wzd05YAp9pM7tJVJk9kT-53" value="Проверка практических заданий" style="rounded=1;whiteSpace=wrap;html=1;direction=west;" parent="1" vertex="1">
          <mxGeometry x="520" y="1130" width="120" height="60" as="geometry" />
        </mxCell>
        <mxCell id="Wzd05YAp9pM7tJVJk9kT-66" value="(admin only)&lt;br&gt;Добавление учителей&amp;nbsp;" style="rounded=0;whiteSpace=wrap;html=1;" parent="1" vertex="1">
          <mxGeometry x="10" y="1000" width="120" height="60" as="geometry" />
        </mxCell>
        <mxCell id="Wzd05YAp9pM7tJVJk9kT-67" value="" style="endArrow=none;dashed=1;html=1;dashPattern=1 3;strokeWidth=2;rounded=0;entryX=0.5;entryY=1;entryDx=0;entryDy=0;exitX=0.5;exitY=0;exitDx=0;exitDy=0;" parent="1" source="Wzd05YAp9pM7tJVJk9kT-66" target="Wzd05YAp9pM7tJVJk9kT-10" edge="1">
          <mxGeometry width="50" height="50" relative="1" as="geometry">
            <mxPoint x="660" y="890" as="sourcePoint" />
            <mxPoint x="710" y="840" as="targetPoint" />
          </mxGeometry>
        </mxCell>
        <mxCell id="Wzd05YAp9pM7tJVJk9kT-68" value="Данный пользователь уже существует&amp;nbsp;" style="rounded=0;whiteSpace=wrap;html=1;" parent="1" vertex="1">
          <mxGeometry x="110" y="1100" width="120" height="60" as="geometry" />
        </mxCell>
        <mxCell id="Wzd05YAp9pM7tJVJk9kT-69" value="" style="endArrow=none;dashed=1;html=1;dashPattern=1 3;strokeWidth=2;rounded=0;entryX=0.5;entryY=1;entryDx=0;entryDy=0;exitX=0.5;exitY=0;exitDx=0;exitDy=0;" parent="1" source="Wzd05YAp9pM7tJVJk9kT-68" target="Wzd05YAp9pM7tJVJk9kT-10" edge="1">
          <mxGeometry width="50" height="50" relative="1" as="geometry">
            <mxPoint x="660" y="890" as="sourcePoint" />
            <mxPoint x="710" y="840" as="targetPoint" />
          </mxGeometry>
        </mxCell>
        <mxCell id="Wzd05YAp9pM7tJVJk9kT-85" style="edgeStyle=orthogonalEdgeStyle;rounded=0;orthogonalLoop=1;jettySize=auto;html=1;" parent="1" source="Wzd05YAp9pM7tJVJk9kT-74" target="Wzd05YAp9pM7tJVJk9kT-75" edge="1">
          <mxGeometry relative="1" as="geometry">
            <Array as="points">
              <mxPoint x="1370" y="830" />
              <mxPoint x="1370" y="830" />
            </Array>
          </mxGeometry>
        </mxCell>
        <mxCell id="Wzd05YAp9pM7tJVJk9kT-74" value="Учитель" style="shape=umlActor;verticalLabelPosition=bottom;verticalAlign=top;html=1;outlineConnect=0;" parent="1" vertex="1">
          <mxGeometry x="1400" y="790" width="30" height="60" as="geometry" />
        </mxCell>
        <mxCell id="Wzd05YAp9pM7tJVJk9kT-86" style="edgeStyle=orthogonalEdgeStyle;rounded=0;orthogonalLoop=1;jettySize=auto;html=1;entryX=0.5;entryY=0;entryDx=0;entryDy=0;" parent="1" source="Wzd05YAp9pM7tJVJk9kT-75" target="Wzd05YAp9pM7tJVJk9kT-15" edge="1">
          <mxGeometry relative="1" as="geometry" />
        </mxCell>
        <mxCell id="Wzd05YAp9pM7tJVJk9kT-75" value="Логин" style="rounded=0;whiteSpace=wrap;html=1;" parent="1" vertex="1">
          <mxGeometry x="1160" y="800" width="120" height="60" as="geometry" />
        </mxCell>
        <mxCell id="Wzd05YAp9pM7tJVJk9kT-76" value="Регистрация" style="rounded=0;whiteSpace=wrap;html=1;" parent="1" vertex="1">
          <mxGeometry x="1260" y="900" width="120" height="60" as="geometry" />
        </mxCell>
        <mxCell id="Wzd05YAp9pM7tJVJk9kT-77" value="" style="endArrow=none;dashed=1;html=1;dashPattern=1 3;strokeWidth=2;rounded=0;entryX=0.5;entryY=1;entryDx=0;entryDy=0;exitX=0.5;exitY=0;exitDx=0;exitDy=0;" parent="1" source="Wzd05YAp9pM7tJVJk9kT-76" target="Wzd05YAp9pM7tJVJk9kT-75" edge="1">
          <mxGeometry width="50" height="50" relative="1" as="geometry">
            <mxPoint x="1710" y="990" as="sourcePoint" />
            <mxPoint x="1760" y="940" as="targetPoint" />
          </mxGeometry>
        </mxCell>
        <mxCell id="Wzd05YAp9pM7tJVJk9kT-78" value="Invalid password" style="rounded=0;whiteSpace=wrap;html=1;" parent="1" vertex="1">
          <mxGeometry x="1090" y="900" width="120" height="60" as="geometry" />
        </mxCell>
        <mxCell id="Wzd05YAp9pM7tJVJk9kT-79" value="" style="endArrow=none;dashed=1;html=1;dashPattern=1 3;strokeWidth=2;rounded=0;entryX=0.5;entryY=1;entryDx=0;entryDy=0;exitX=0.5;exitY=0;exitDx=0;exitDy=0;" parent="1" source="Wzd05YAp9pM7tJVJk9kT-78" target="Wzd05YAp9pM7tJVJk9kT-75" edge="1">
          <mxGeometry width="50" height="50" relative="1" as="geometry">
            <mxPoint x="1710" y="930" as="sourcePoint" />
            <mxPoint x="1760" y="880" as="targetPoint" />
          </mxGeometry>
        </mxCell>
        <mxCell id="Wzd05YAp9pM7tJVJk9kT-80" value="(admin only)&lt;br&gt;Добавление учителей&amp;nbsp;" style="rounded=0;whiteSpace=wrap;html=1;" parent="1" vertex="1">
          <mxGeometry x="1240" y="1000" width="120" height="60" as="geometry" />
        </mxCell>
        <mxCell id="Wzd05YAp9pM7tJVJk9kT-81" value="" style="endArrow=none;dashed=1;html=1;dashPattern=1 3;strokeWidth=2;rounded=0;entryX=0.5;entryY=1;entryDx=0;entryDy=0;exitX=0.5;exitY=0;exitDx=0;exitDy=0;" parent="1" source="Wzd05YAp9pM7tJVJk9kT-80" target="Wzd05YAp9pM7tJVJk9kT-76" edge="1">
          <mxGeometry width="50" height="50" relative="1" as="geometry">
            <mxPoint x="1980" y="940" as="sourcePoint" />
            <mxPoint x="2030" y="890" as="targetPoint" />
          </mxGeometry>
        </mxCell>
        <mxCell id="zt1CgaJMKVYSrlYPlvOR-1" value="Ввод курса" style="rounded=0;whiteSpace=wrap;html=1;" vertex="1" parent="1">
          <mxGeometry x="670" y="1130" width="120" height="60" as="geometry" />
        </mxCell>
        <mxCell id="zt1CgaJMKVYSrlYPlvOR-2" value="Ввод предмета" style="rounded=0;whiteSpace=wrap;html=1;" vertex="1" parent="1">
          <mxGeometry x="818" y="1130" width="120" height="60" as="geometry" />
        </mxCell>
        <mxCell id="zt1CgaJMKVYSrlYPlvOR-4" style="edgeStyle=orthogonalEdgeStyle;rounded=0;orthogonalLoop=1;jettySize=auto;html=1;exitX=0.5;exitY=0;exitDx=0;exitDy=0;" edge="1" parent="1" source="zt1CgaJMKVYSrlYPlvOR-3">
          <mxGeometry relative="1" as="geometry">
            <mxPoint x="414" y="410" as="targetPoint" />
          </mxGeometry>
        </mxCell>
        <mxCell id="zt1CgaJMKVYSrlYPlvOR-3" value="Тест на определенную тему" style="rounded=0;whiteSpace=wrap;html=1;" vertex="1" parent="1">
          <mxGeometry x="354" y="500" width="120" height="60" as="geometry" />
        </mxCell>
        <mxCell id="zt1CgaJMKVYSrlYPlvOR-5" value="Практическое задание на заданную тему" style="rounded=0;whiteSpace=wrap;html=1;" vertex="1" parent="1">
          <mxGeometry x="342" y="320" width="144" height="90" as="geometry" />
        </mxCell>
        <mxCell id="zt1CgaJMKVYSrlYPlvOR-10" value="" style="edgeStyle=orthogonalEdgeStyle;rounded=0;orthogonalLoop=1;jettySize=auto;html=1;" edge="1" parent="1" source="zt1CgaJMKVYSrlYPlvOR-8" target="zt1CgaJMKVYSrlYPlvOR-9">
          <mxGeometry relative="1" as="geometry" />
        </mxCell>
        <mxCell id="zt1CgaJMKVYSrlYPlvOR-8" value="Сделать тему" style="rounded=0;whiteSpace=wrap;html=1;" vertex="1" parent="1">
          <mxGeometry x="968" y="1130" width="120" height="60" as="geometry" />
        </mxCell>
        <mxCell id="zt1CgaJMKVYSrlYPlvOR-14" value="" style="edgeStyle=orthogonalEdgeStyle;rounded=0;orthogonalLoop=1;jettySize=auto;html=1;" edge="1" parent="1" source="zt1CgaJMKVYSrlYPlvOR-9" target="zt1CgaJMKVYSrlYPlvOR-13">
          <mxGeometry relative="1" as="geometry" />
        </mxCell>
        <mxCell id="zt1CgaJMKVYSrlYPlvOR-9" value="Список тем" style="whiteSpace=wrap;html=1;rounded=0;" vertex="1" parent="1">
          <mxGeometry x="968" y="1270" width="120" height="60" as="geometry" />
        </mxCell>
        <mxCell id="zt1CgaJMKVYSrlYPlvOR-16" value="" style="edgeStyle=orthogonalEdgeStyle;rounded=0;orthogonalLoop=1;jettySize=auto;html=1;" edge="1" parent="1" source="zt1CgaJMKVYSrlYPlvOR-11" target="zt1CgaJMKVYSrlYPlvOR-15">
          <mxGeometry relative="1" as="geometry" />
        </mxCell>
        <mxCell id="zt1CgaJMKVYSrlYPlvOR-11" value="Список фамилий учеников" style="whiteSpace=wrap;html=1;rounded=1;" vertex="1" parent="1">
          <mxGeometry x="520" y="1270" width="120" height="60" as="geometry" />
        </mxCell>
        <mxCell id="zt1CgaJMKVYSrlYPlvOR-13" value="Добавление новой темы + тестового задание + практического задания" style="whiteSpace=wrap;html=1;rounded=0;" vertex="1" parent="1">
          <mxGeometry x="934" y="1410" width="188" height="100" as="geometry" />
        </mxCell>
        <mxCell id="zt1CgaJMKVYSrlYPlvOR-18" value="" style="edgeStyle=orthogonalEdgeStyle;rounded=0;orthogonalLoop=1;jettySize=auto;html=1;" edge="1" parent="1" source="zt1CgaJMKVYSrlYPlvOR-15" target="zt1CgaJMKVYSrlYPlvOR-17">
          <mxGeometry relative="1" as="geometry" />
        </mxCell>
        <mxCell id="zt1CgaJMKVYSrlYPlvOR-15" value="Список тем, которые существует + которые&amp;nbsp; сделал ученик" style="whiteSpace=wrap;html=1;rounded=1;" vertex="1" parent="1">
          <mxGeometry x="520" y="1410" width="120" height="60" as="geometry" />
        </mxCell>
        <mxCell id="zt1CgaJMKVYSrlYPlvOR-17" value="Страница с ответом на практику + с ФИО + с баллом за тест + текст с заданием +" style="whiteSpace=wrap;html=1;rounded=1;" vertex="1" parent="1">
          <mxGeometry x="505" y="1550" width="150" height="120" as="geometry" />
        </mxCell>
      </root>
    </mxGraphModel>
  </diagram>
</mxfile>
